<svg id="Layer_1" xmlns="http://www.w3.org/2000/svg" width="278.9" height="49.6" viewBox="0 0 278.9 49.6"><style>.st0{fill:#828282}</style><title>swoosh</title><g id="Layer_2"><g id="Branding"><path class="st0" d="M278.8 22.7c-25.4 8.2-60.1 12.9-99 12.9-16.1 0-32.8-.8-50-2.5C76.6 28 30.5 15.6.2 0L.1.2c30.2 15.6 76.4 28 129.6 33.1 17.2 1.7 34 2.5 50 2.5 39 0 73.6-4.6 99.1-12.9v-.2z"/><path class="st0" d="M278.8 22.7c-26.2 8.7-62.2 13.6-102.8 13.6-14.9 0-30.4-.7-46.2-2.1C76.6 29.5 30.6 17.5.2 2.2l-.1.2c30.4 15.3 76.5 27.4 129.7 32.1 15.8 1.4 31.3 2.1 46.2 2.1 40.6 0 76.6-5 102.8-13.7v-.2z"/><path class="st0" d="M278.8 22.7c-26.9 9.2-64.4 14.5-106.6 14.5-13.7 0-27.8-.6-42.3-1.7C76.7 31.1 30.7 19.4.2 4.4l-.1.2c30.5 15.1 76.5 26.8 129.8 31.1 14.5 1.2 28.6 1.7 42.3 1.7 42.1 0 79.6-5.3 106.6-14.5v-.2z"/><path class="st0" d="M278.8 22.7C251.1 32.3 212.1 38 168.4 38c-12.4 0-25.3-.5-38.4-1.4C76.8 32.7 30.8 21.4.2 6.6l-.1.2c30.6 14.8 76.6 26.2 130 30 13.1 1 25.9 1.4 38.4 1.4 43.7 0 82.7-5.7 110.4-15.3l-.1-.2z"/><path class="st0" d="M278.8 22.7c-28.5 10.2-68.9 16.2-114.2 16.2-11.2 0-22.7-.4-34.4-1.1-53.3-3.5-99.3-14.4-130-29l-.1.1c30.8 14.6 76.7 25.6 130.1 29 11.7.8 23.2 1.1 34.4 1.1 45.4 0 85.8-6 114.3-16.2l-.1-.1z"/><path class="st0" d="M278.8 22.7c-29.2 10.7-71.1 17.1-118.1 17.1-9.9 0-20.1-.3-30.4-.9C77 35.9 31 25.3.2 10.9l-.1.2c30.9 14.4 76.8 25 130.2 28 10.3.6 20.4.9 30.4.9 47 0 89-6.4 118.2-17.1l-.1-.2z"/><path class="st0" d="M278.8 22.7c-30 11.3-73.4 18-122.1 18-8.6 0-17.4-.2-26.3-.7C77.1 37.5 31.1 27.2.2 13.1l-.1.2c31 14.1 77 24.4 130.4 27 8.9.4 17.7.7 26.3.7 48.6 0 92.1-6.8 122.1-18.1l-.1-.2z"/><path class="st0" d="M278.8 22.7c-30.7 11.8-75.7 19-126 19-7.3 0-14.7-.2-22.2-.5C77.2 39 31.2 29.2.2 15.3l-.1.2c31.1 13.9 77.1 23.8 130.5 26 7.5.3 14.9.5 22.2.5 50.3 0 95.3-7.2 126.1-19l-.1-.3z"/><path class="st0" d="M278.8 22.7c-31.4 12.4-78 20-130 20-5.9 0-11.9-.1-18-.3C77.4 40.6 31.4 31.1.2 17.5l-.1.2c31.2 13.7 77.3 23.2 130.7 25 6.1.2 12.1.3 18 .3 52 0 98.6-7.6 130.1-20l-.1-.3z"/><path class="st0" d="M278.8 22.7c-32.2 13-80.4 21-134 21-4.6 0-9.2-.1-13.9-.2C77.5 42.2 31.5 33 .1 19.7l-.1.2c31.4 13.4 77.5 22.5 130.9 23.9 4.7.1 9.3.2 13.9.2 53.6 0 101.8-8.1 134.1-21.1l-.1-.2z"/><path class="st0" d="M278.8 22.7c-32.9 13.6-82.7 22.1-138 22.1-3.2 0-6.4 0-9.7-.1-53.4-1-99.6-9.7-131-22.9l-.1.3C31.5 35.2 77.7 44 131.1 45c3.2.1 6.5.1 9.7.1 55.3-.1 105.2-8.6 138.1-22.2l-.1-.2z"/><path class="st0" d="M278.8 22.7c-33.6 14.2-85 23.2-142 23.2h-5.5C77.9 45.3 31.6 36.9.1 24l-.1.3c31.6 12.9 77.8 21.3 131.3 21.9h5.5c57 0 108.4-9 142.1-23.2l-.1-.3z"/><path class="st0" d="M278.8 22.7C244.5 37.5 191.4 47 132.8 47h-1.3C78.1 46.9 31.7 38.9.1 26.2l-.1.3c31.7 12.7 78 20.7 131.5 20.8h1.3c58.7 0 111.7-9.5 146.1-24.4l-.1-.2z"/><path class="st0" d="M278.8 22.7c-34.4 15.2-87.9 25.2-147.1 25.5h-3C76.5 48.2 31.2 40.6 0 28.4v.2c31.2 12.2 76.5 19.8 128.8 19.8h3C191 48.1 244.5 38.1 279 22.9l-.2-.2z"/><path class="st0" d="M278.8 22.7C244.5 38.1 191.1 48.5 132 49.3h-7.2C74.3 49.3 30.5 42.2 0 30.6v.2c30.5 11.6 74.3 18.8 124.8 18.8h7.1c59.2-.8 112.6-11.2 146.9-26.6v-.3z"/></g></g></svg>